<svg width="420" height="282" viewBox="0 0 420 282" fill="none" xmlns="http://www.w3.org/2000/svg">
<path d="M32.0001 4L384.001 4C401.674 4 416.001 18.3268 416.001 35.9999L416.001 82.1226C416.001 88.5537 414.032 94.8306 410.359 100.109L409.39 101.501C402.176 111.866 402.456 125.697 410.083 135.762C413.923 140.829 416.001 147.012 416.001 153.37L416.001 250.001C416.001 267.674 401.674 282.001 384.001 282.001L31.9999 282C14.3268 282 -4.21268e-05 267.673 -1.08311e-05 250L0.000176529 153.369C0.000207326 147.011 2.07842 140.828 5.91821 135.761C13.5454 125.696 13.8253 111.865 6.61172 101.5L5.64303 100.108C1.96942 94.8295 0.0002099 88.5527 0.000179666 82.1216L2.91086e-05 36.0001C-3.11484e-05 18.3269 14.3269 4 32.0001 4Z" fill="url(#paint0_linear_2_487)"/>
<path d="M36.0003 6.10352e-05L388.002 5.96465e-05C405.675 6.04134e-05 420.001 14.3269 420.002 32L420.002 78.1226C420.002 84.5538 418.032 90.8307 414.359 96.1093L413.39 97.5012C406.177 107.866 406.457 121.697 414.084 131.762C417.923 136.829 420.002 143.012 420.002 149.37L420.001 246.001C420.001 263.674 405.675 278.001 388.001 278.001L36.0001 278C18.327 278 4.0002 263.673 4.00023 246L4.00042 149.369C4.00045 143.011 6.07867 136.828 9.91845 131.761C17.5456 121.696 17.8256 107.865 10.612 97.5001L9.64328 96.1082C5.96966 90.8296 4.00045 84.5527 4.00042 78.1217L4.00027 32.0002C4.00021 14.327 18.3271 6.10352e-05 36.0003 6.10352e-05Z" fill="#131313"/>
<defs>
<linearGradient id="paint0_linear_2_487" x1="208" y1="282" x2="208" y2="3.99999" gradientUnits="userSpaceOnUse">
<stop stop-color="#719BFF"/>
<stop offset="0.770833" stop-color="#DA8AFF"/>
</linearGradient>
</defs>
</svg>
